{"title":"Marvel's Agents of S H I E L D S02E05 720p WEBRip x264-xRed","uid":11270777,"size":268541042,"categoryP":"video","categoryS":"tv_shows","magnet":"?xt=urn:btih:55d11e4e60073008b2bca449c091c844fd2cfb11&amp;dn=Marvel%27s+Agents+of+S+H+I+E+L+D+S02E05+720p+WEBRip+x264-xRed&amp;tr=udp%3A%2F%2Ftracker.openbittorrent.com%3A80&amp;tr=udp%3A%2F%2Fopen.demonii.com%3A1337&amp;tr=udp%3A%2F%2Ftracker.coppersurfer.tk%3A6969&amp;tr=udp%3A%2F%2Fexodus.desync.com%3A6969","seeders":2,"leechers":0,"uploader":"xredm","files":4,"time":1414079659,"description":"Encoded by xRed of www . xRedMedia . com\n\nIf in doubt, check the torrent @ KickAss [ VUL @ KickAss ]\n\nPlease Seed As Much As You Can!\n\nEncoders Note:\nI need your help in funding my SeedBox. If you have spares that you can share, [b]please donate via BitCoin @ 1EdjqFaZtSYVWhWRnYVvjP9qRsh7si1UB4[/b]\nAll Funds will go to the SeedBox\n\n[code]Video\nID                                       : 1\nFormat                                   : AVC\nFormat/Info                              : Advanced Video Codec\nFormat profile                           : &lt;a class=&quot;__cf_email__&quot; href=&quot;/cdn-cgi/l/email-protection&quot; data-cfemail=&quot;dc94b5bbb49c90e8f2ed&quot;&gt;[email&amp;#160;protected]&lt;/a&gt;&lt;script cf-hash='f9e31' type=&quot;text/javascript&quot;&gt;\n/* &lt;![CDATA[ */!function(){try{var t=&quot;currentScript&quot;in document?document.currentScript:function(){for(var t=document.getElementsByTagName(&quot;script&quot;),e=t.length;e--;)if(t[e].getAttribute(&quot;cf-hash&quot;))return t[e]}();if(t&amp;&amp;t.previousSibling){var e,r,n,i,c=t.previousSibling,a=c.getAttribute(&quot;data-cfemail&quot;);if(a){for(e=&quot;&quot;,r=parseInt(a.substr(0,2),16),n=2;a.length-n;n+=2)i=parseInt(a.substr(n,2),16)^r,e+=String.fromCharCode(i);e=document.createTextNode(e),c.parentNode.replaceChild(e,c)}}}catch(u){}}();/* ]]&gt; */&lt;/script&gt;\nFormat settings, CABAC                   : Yes\nFormat settings, ReFrames                : 4 frames\nCodec ID                                 : avc1\nCodec ID/Info                            : Advanced Video Coding\nDuration                                 : 43mn 3s\nBit rate                                 : 659 Kbps\nWidth                                    : 1 280 pixels\nHeight                                   : 720 pixels\nDisplay aspect ratio                     : 16:9\nFrame rate mode                          : Variable\nFrame rate                               : 23.976 fps\nColor space                              : YUV\nChroma subsampling                       : 4:2:0\nBit depth                                : 8 bits\nScan type                                : Progressive\nBits/(Pixel*Frame)                       : 0.030\nStream size                              : 203 MiB (79%)\nWriting library                          : x264 core 142 r2409+42 04be48a tMod [8-bit@4:2:0 X86_64]\n\nAudio\nID                                       : 2\nFormat                                   : AAC\nFormat/Info                              : Advanced Audio Codec\nFormat profile                           : LC\nCodec ID                                 : 40\nDuration                                 : 43mn 3s\nBit rate mode                            : Constant\nBit rate                                 : 165 Kbps\nChannel(s)                               : 2 channels\nChannel(s)_Original                      : 6 channels\nChannel positions                        : Front: L C R, Side: L R, LFE\nSampling rate                            : 48.0 KHz\nCompression mode                         : Lossy\nStream size                              : 50.7 MiB (20%)\nLanguage                                 : English\n\n[/code]","torrent":{"xt":"urn:btih:55d11e4e60073008b2bca449c091c844fd2cfb11","amp;dn":"Marvel%27s+Agents+of+S+H+I+E+L+D+S02E05+720p+WEBRip+x264-xRed","amp;tr":["udp%3A%2F%2Ftracker.openbittorrent.com%3A80","udp%3A%2F%2Fopen.demonii.com%3A1337","udp%3A%2F%2Ftracker.coppersurfer.tk%3A6969","udp%3A%2F%2Fexodus.desync.com%3A6969"],"infoHash":"55d11e4e60073008b2bca449c091c844fd2cfb11","infoHashBuffer":{"type":"Buffer","data":[85,209,30,78,96,7,48,8,178,188,164,73,192,145,200,68,253,44,251,17]},"announce":[],"urlList":[]}}